<svg xmlns="http://www.w3.org/2000/svg" width="323.932" height="153" viewBox="0 0 323.932 153">
  <g id="logo" transform="translate(0 0.002)">
    <path id="Path_8" data-name="Path 8" d="M114.445,22.489C113.3,7.084,92.919-4.328,77.15,1.585s-21.189,27.05-9.933,38.644c-12.864-8.247-33.508-3.034-39.811,10.037s3.553,30.266,18.985,33.171c-14.965,6.328-21.552,25.079-13.331,38.047s29.411,17.325,43.027,8.844C75.827,142,87.369,152.814,100.259,153s24.82-10.244,25.028-21.915c3.916,15.483,25.131,25.131,41.211,18.751s22.59-27.05,12.63-40.122c13.46,10.582,38.255,3.631,42.741-11.956s-13.409-32.6-30.837-29.307C206,62.767,211.7,43.16,201.743,31.567s-32.367-11.489-42.171.207c1.919-11.36-7.781-23.264-20.333-25.028S113.485,13.8,114.445,22.489Z" transform="translate(40.596 0)" fill="#d7e4fa"/>
    <g id="Group_5" data-name="Group 5" transform="translate(0 29.803)">
      <path id="Path_9" data-name="Path 9" d="M61.026,63.439H46.891l-.1.285a51.479,51.479,0,0,1-9.1,14.705,36.794,36.794,0,0,1-12.527,9.207A37.5,37.5,0,0,1,9.933,90.723,31.441,31.441,0,0,1,0,89.3l1.815-4.357a28.551,28.551,0,0,0,12.864,3.346c6.51,0,12.319-2.49,17.48-7.5a34.38,34.38,0,0,0,5.42-6.847A71.946,71.946,0,0,0,42.326,63.7l.1-.285H36.7l.389-1.919H43.1l.1-.337.389-.96c1.3-3.579,2.438-7.106,3.449-10.556s2.282-8.118,3.735-14.005q2.1-8.286,3.008-13.383l5.887-2.671a3.312,3.312,0,0,0-.726-.13c-.182-.026-.415-.052-.674-.078a225.136,225.136,0,0,0-24.509-1.582,56.78,56.78,0,0,0-10.633.83,20.312,20.312,0,0,0-6.847,2.516c-2.645,1.712-3.968,3.838-3.968,6.406,0,5.343,6.665,8.351,19.97,9.077l-3.761,4.02c-5.395-.337-9.752-1.634-13.02-3.89s-4.9-5.135-4.9-8.662c0-4.642,2.931-8.4,8.792-11.23q7.43-3.579,21.889-3.579c2.568,0,5.887.156,9.959.441,4.072.311,8.273.7,12.63,1.167s7.962.986,10.841,1.5l1.011.182-2.542,5.109L72.178,21.5c-3.372-.6-7.288-1.219-11.8-1.867l-.389-.052-.052.337c-.182.934-.7,3.216-1.556,6.769s-1.608,6.536-2.23,8.87c-.648,2.334-1.323,4.772-2.049,7.288s-1.5,5.031-2.334,7.521c-1.426,4.435-2.775,8.144-4.02,11.126h13.72Z" transform="translate(0 -8.638)" fill="#8b6189"/>
      <path id="Path_10" data-name="Path 10" d="M46,11.49,31.086,76.9l-.519,2.2a23.4,23.4,0,0,0-.726,5.265,5.468,5.468,0,0,0,.648,2.853A1.938,1.938,0,0,0,32.1,88.336c1.167,0,3.034-1.4,5.628-4.2l.908.8-.571.622A50.063,50.063,0,0,1,33.29,90.7a4.563,4.563,0,0,1-2.827,1.323,3.6,3.6,0,0,1-2.983-1.893,7.583,7.583,0,0,1-1.271-4.331,30.588,30.588,0,0,1,.726-5.395l13.1-66.031Z" transform="translate(41.766 -11.49)" fill="#8b6189"/>
      <path id="Path_11" data-name="Path 11" d="M42.633,29.536l-5.5,21.941a21.074,21.074,0,0,0-.726,4.98,4.239,4.239,0,0,0,1.245,3.19A4.469,4.469,0,0,0,40.9,60.84q4.824,0,10.037-7.884l.233-.337c.078-.389.13-.674.182-.908l3.579-19.866,5.55-2.334L55.5,48.183a29.808,29.808,0,0,0-1.245,7.366,6.1,6.1,0,0,0,.622,2.957,1.864,1.864,0,0,0,1.634,1.141c1.167,0,3.034-1.4,5.628-4.2l.908.8-.571.622A50.063,50.063,0,0,1,57.7,62.007a4.505,4.505,0,0,1-2.827,1.323,3.58,3.58,0,0,1-2.983-1.79,7.791,7.791,0,0,1-1.219-4.461c0-.571.026-1.089.052-1.582q-5.913,7.819-11.671,7.832a6.341,6.341,0,0,1-4.616-1.66A5.861,5.861,0,0,1,32.7,57.209a27.682,27.682,0,0,1,.622-5.265L37.187,31.87Z" transform="translate(52.108 17.225)" fill="#8b6189"/>
      <path id="Path_12" data-name="Path 12" d="M63.556,61.1h-5.55l.389-1.919h5.628l5.343-24.9A73.2,73.2,0,0,1,72.141,24.4a26.257,26.257,0,0,1,3.4-6.354Q80.4,11.51,87.676,11.51a12,12,0,0,1,4.487.8l-2.049,5.161a6.817,6.817,0,0,0-5.784-3.164A5.309,5.309,0,0,0,80,16.386a17.922,17.922,0,0,0-2.853,6.847L68.458,59.2h9.129L77.2,61.124H67.991L60.21,93.336a55.968,55.968,0,0,1-2.983,9.648,21.89,21.89,0,0,1-3.942,5.887c-3.034,3.294-6.328,4.928-9.933,4.928a11.4,11.4,0,0,1-4.642-.908l2.775-4.1a7.979,7.979,0,0,0,5.161,1.919q4.2,0,6.3-4.435A60.492,60.492,0,0,0,56.19,95.385Z" transform="translate(61.685 -11.458)" fill="#8b6189"/>
      <path id="Path_13" data-name="Path 13" d="M70.72,61.1H65.17l.389-1.919h5.628l5.343-24.9A73.206,73.206,0,0,1,79.3,24.4a26.257,26.257,0,0,1,3.4-6.354Q87.565,11.51,94.84,11.51a12,12,0,0,1,4.487.8l-2.049,5.161a6.817,6.817,0,0,0-5.784-3.164,5.309,5.309,0,0,0-4.331,2.075,17.922,17.922,0,0,0-2.853,6.847L75.622,59.2h9.129l-.389,1.919H75.181L67.4,93.336a55.964,55.964,0,0,1-2.983,9.648,21.889,21.889,0,0,1-3.942,5.887c-3.034,3.294-6.328,4.928-9.933,4.928a11.4,11.4,0,0,1-4.642-.908l2.775-4.1a7.979,7.979,0,0,0,5.161,1.919q4.2,0,6.3-4.435A60.492,60.492,0,0,0,63.38,95.385Z" transform="translate(73.143 -11.458)" fill="#8b6189"/>
      <path id="Path_14" data-name="Path 14" d="M69.77,89.208l7.08-32.73c1.219-5.55,2.179-11.36,2.931-17.377A135.253,135.253,0,0,0,80.9,22.4c0-1.167-.026-2.2-.052-3.112l6.25-2.827v1.582c0,2.49-.233,6.536-.674,12.086-.467,5.55-.934,9.829-1.426,12.812A74.386,74.386,0,0,1,93.6,27.871,51.735,51.735,0,0,1,104.186,16.9c3.6-2.671,6.9-4.02,9.829-4.02a8.565,8.565,0,0,1,7.132,3.553c1.815,2.36,2.7,5.524,2.7,9.492A38.074,38.074,0,0,1,120.6,40.968a51.462,51.462,0,0,1-8.818,13.9A45.894,45.894,0,0,1,99.544,64.88a27.255,27.255,0,0,1-13.2,3.657,18.191,18.191,0,0,1-3.449-.389l3.009-4.02a18.329,18.329,0,0,0,5.68.908,16.947,16.947,0,0,0,9.44-3.138,30.3,30.3,0,0,0,8.481-8.87A52.413,52.413,0,0,0,115.416,39.9a46.711,46.711,0,0,0,2.438-13.59,14.551,14.551,0,0,0-1.608-7.443,5.085,5.085,0,0,0-4.513-2.671q-4.085,0-9.414,4.668A58.44,58.44,0,0,0,91.893,33.55a62.151,62.151,0,0,0-6.147,12.241,117.556,117.556,0,0,0-4.409,15.25L75.216,89.233H69.77Z" transform="translate(111.18 -9.275)" fill="#8b6189"/>
      <path id="Path_15" data-name="Path 15" d="M99.543,29.536l-5.5,21.941a21.074,21.074,0,0,0-.726,4.98,4.239,4.239,0,0,0,1.245,3.19,4.469,4.469,0,0,0,3.242,1.193q4.824,0,10.037-7.884l.233-.337c.078-.389.13-.674.182-.908l3.579-19.866,5.55-2.334-4.98,18.673a29.808,29.808,0,0,0-1.245,7.366,6.1,6.1,0,0,0,.622,2.957,1.864,1.864,0,0,0,1.634,1.141c1.167,0,3.034-1.4,5.628-4.2l.908.8-.571.622a50.066,50.066,0,0,1-4.772,5.135,4.505,4.505,0,0,1-2.827,1.323,3.58,3.58,0,0,1-2.983-1.79,7.792,7.792,0,0,1-1.219-4.461c0-.571.026-1.089.052-1.582q-5.913,7.819-11.671,7.832a6.341,6.341,0,0,1-4.616-1.66,5.861,5.861,0,0,1-1.738-4.461,27.682,27.682,0,0,1,.622-5.265L94.1,31.87Z" transform="translate(142.796 17.225)" fill="#8b6189"/>
      <path id="Path_16" data-name="Path 16" d="M120.46,61.1h-5.55l.389-1.919h5.628l5.343-24.9a73.206,73.206,0,0,1,2.775-9.881,26.259,26.259,0,0,1,3.4-6.354q4.863-6.536,12.138-6.536a12,12,0,0,1,4.487.8l-2.049,5.161a6.817,6.817,0,0,0-5.784-3.164,5.309,5.309,0,0,0-4.331,2.075,17.922,17.922,0,0,0-2.853,6.847L125.362,59.2h9.129l-.389,1.919h-9.181L117.14,93.336a55.966,55.966,0,0,1-2.983,9.648,21.889,21.889,0,0,1-3.942,5.887c-3.034,3.294-6.328,4.928-9.933,4.928a11.4,11.4,0,0,1-4.642-.908l2.775-4.1a7.979,7.979,0,0,0,5.161,1.919q4.2,0,6.3-4.435a60.494,60.494,0,0,0,3.242-10.893Z" transform="translate(152.405 -11.458)" fill="#8b6189"/>
      <path id="Path_17" data-name="Path 17" d="M127.63,61.1h-5.55l.389-1.919H128.1l5.343-24.9a73.2,73.2,0,0,1,2.775-9.881,26.258,26.258,0,0,1,3.4-6.354q4.863-6.536,12.138-6.536a12,12,0,0,1,4.487.8l-2.049,5.161a6.817,6.817,0,0,0-5.784-3.164,5.309,5.309,0,0,0-4.331,2.075,17.922,17.922,0,0,0-2.853,6.847L132.532,59.2h9.129l-.389,1.919h-9.181L124.31,93.336a55.967,55.967,0,0,1-2.983,9.648,21.89,21.89,0,0,1-3.942,5.887c-3.034,3.294-6.328,4.928-9.933,4.928a11.4,11.4,0,0,1-4.642-.908l2.775-4.1a7.979,7.979,0,0,0,5.161,1.919q4.2,0,6.3-4.435a60.492,60.492,0,0,0,3.242-10.893Z" transform="translate(163.831 -11.458)" fill="#8b6189"/>
      <path id="Path_18" data-name="Path 18" d="M115.64,58.742l3.19-3.735q2.49,5.913,7.936,5.913a6.979,6.979,0,0,0,4.85-1.841,5.6,5.6,0,0,0,2.023-4.279,4.747,4.747,0,0,0-.96-3.008,34.761,34.761,0,0,0-4.591-4.2,28.65,28.65,0,0,1-4.513-4.279,5.827,5.827,0,0,1-1.167-3.6,8.48,8.48,0,0,1,1.556-4.928,11.693,11.693,0,0,1,4.176-3.657,11.478,11.478,0,0,1,5.5-1.4,6.926,6.926,0,0,1,4.279,1.271,3.886,3.886,0,0,1,1.738,3.268,3.6,3.6,0,0,1-2.2,3.579,6.532,6.532,0,0,0-2.023-4.176,6.117,6.117,0,0,0-4.279-1.5,5.889,5.889,0,0,0-4.046,1.5,4.447,4.447,0,0,0-1.738,3.423c0,1.582.986,3.164,2.957,4.72l3.294,2.671q4.824,3.812,4.824,7.781a9.947,9.947,0,0,1-1.686,5.524,11.97,11.97,0,0,1-4.539,4.1,12.751,12.751,0,0,1-6.043,1.53C120.775,63.384,117.948,61.854,115.64,58.742Z" transform="translate(184.276 17.56)" fill="#8b6189"/>
    </g>
  </g>
</svg>
